<svg width="102" height="32" viewBox="0 0 102 32" fill="none" xmlns="http://www.w3.org/2000/svg">
<g clip-path="url(#clip0_2_19)">
<path d="M91.359 9.83427L102 7.1474L100.158 0L89.5174 2.68686C84.4985 3.95478 80.9929 8.42059 80.9929 13.5485H88.4441C88.4441 11.7941 89.6434 10.268 91.359 9.83427ZM17.4536 11.0565C17.4536 11.0565 8.48196 13.3202 7.65346 13.5256V1.77895H0V31.4433H7.65346V24.1765C7.62862 22.1692 9.08516 20.8012 10.4672 20.4342L17.4536 18.6693V31.4433H25.107V1.77895H17.4536V11.0565ZM100.158 12.1559L89.5174 14.8427C84.4985 16.1106 80.9929 20.5764 80.9929 25.7043V31.4433H88.4441V25.7043C88.4441 23.9499 89.6434 22.4239 91.359 21.9901L102 19.3033L100.158 12.1559ZM62.7995 14.9551V21.609L70.8486 19.5913C69.7895 22.9174 66.9491 25.3478 63.2413 25.3478C58.3412 25.3478 54.9793 21.4194 54.9793 16.5286C54.9793 11.6378 58.3412 7.87093 63.1189 7.87093C65.5174 7.87093 67.5541 8.89474 68.9965 10.4946L74.1076 5.43519C71.2602 2.8133 67.3891 1.21523 63.1189 1.21523C54.0071 1.21523 47.3258 8.10976 47.3258 17.289C47.3258 26.4682 55.1407 32 63.4843 32C71.8279 32 78.3282 25.7781 78.9066 17.5682L78.9012 10.902L62.7995 14.9516V14.9551ZM27.8711 8.43288H33.7841V31.4416H41.4376V8.43288H47.3099V1.77895H27.8711V8.43288Z" fill="black"/>
</g>
<defs>
<clipPath id="clip0_2_19">
<rect width="102" height="32" fill="white"/>
</clipPath>
</defs>
</svg>
