<?xml version="1.0" encoding="utf-8"?>
<svg version="1.1"
     id="Ebene_1"
     xmlns="http://www.w3.org/2000/svg"
     xmlns:xlink="http://www.w3.org/1999/xlink"
     x="0" y="0"
     viewBox="24 23.1 211 21.9"
     xml:space="preserve">
  <!-- Optional: style-Attribut aktualisieren oder entfernen -->
  
  <g id="Fläche">
  </g>
  <g id="IAA_Mobility_2023" fill="white">
    <g>
      <g>
        <polygon points="24,23.1 29,34 24,45 27.6,45 32.6,34 27.6,23.1"/>
        <polyline points="34.7,23.1 39.8,34 34.7,45 31.1,45 36.2,34 31.1,23.1"/>
        <g>
          <path d="M101,40l-1.1-3.1h-4.2l-5-13.8h-3.6L79.4,45h3.6l1.8-5h8.6l1.8,5h3.7l-1.8-5C96.9,40,101,40,101,40z M85.9,36.9l3.2-8.9
              l3.1,8.9H85.9z"/>
          <path d="M78.6,40l-1.1-3.1h-4.2l-5-13.8h-3.6L57,45h3.6l1.8-5h8.6l1.8,5h3.7l-1.8-5C74.5,40,78.6,40,78.6,40z M63.5,36.9
              l3.2-8.9l3.1,8.9H63.5z"/>
          <rect x="50.9" y="23.1" width="3.5" height="21.9"/>
          <g>
            <polygon points="220.7,23.1 225.8,32.6 231,23.1 235,23.1 227.6,36.2 227.6,45 223.9,45 223.9,36.2 216.5,23.1"/>
            <polygon points="215.8,26.6 209.6,26.6 209.6,45 205.9,45 205.9,26.6 199.7,26.6 199.7,23.1 215.8,23.1"/>
            <rect x="194.2" y="23.1" width="3.7" height="21.9"/>
            <polygon points="192.2,41.7 192.2,45 180.3,45 179.8,45 179.8,23.1 183.5,23.1 183.5,41.7"/>
            <rect x="173.7" y="23.1" width="3.7" height="21.9"/>
            <path d="M170.7,36.1c-0.6-0.9-1.4-1.5-2.3-2c0.9-0.4,1.6-1.1,2.2-1.9c0.6-0.9,0.8-1.9,0.8-3.1c0-0.9-0.2-1.7-0.5-2.4
                c-0.3-0.7-0.8-1.4-1.4-1.9c-0.6-0.5-1.3-0.9-2.1-1.2c-0.8-0.3-1.8-0.4-2.8-0.4h-5.2h-3.6V45h2.4h6.5c1.1,0,2-0.1,2.9-0.4
                s1.6-0.6,2.2-1.1c0.6-0.5,1.1-1.1,1.4-1.8s0.5-1.5,0.5-2.4C171.6,38,171.3,37,170.7,36.1z M159.4,26.3h4.8c1.1,0,2,0.3,2.6,0.9
                s0.9,1.4,0.9,2.3c0,0.9-0.3,1.6-0.9,2.2c-0.6,0.6-1.4,0.9-2.6,0.9h-4.9V26.3z M167.1,41c-0.6,0.5-1.5,0.8-2.6,0.8h-5.1v-6.3
                h5.1c1.1,0,1.9,0.3,2.6,0.9c0.6,0.6,0.9,1.4,0.9,2.3C168,39.7,167.7,40.4,167.1,41z"/>
            <path d="M152.9,29.5c-0.5-1.4-1.2-2.6-2.2-3.6s-2-1.8-3.3-2.4c-1.3-0.6-2.7-0.8-4.3-0.8c-1.6,0-3,0.3-4.3,0.8
                c-1.3,0.6-2.4,1.4-3.3,2.4c-0.9,1-1.7,2.2-2.2,3.6c-0.5,1.4-0.8,2.9-0.8,4.5c0,1.6,0.2,3.1,0.7,4.5s1.2,2.6,2.2,3.6
                c0.9,1,2.1,1.8,3.4,2.4c1.3,0.6,2.7,0.8,4.3,0.8c1.6,0,3-0.3,4.3-0.8c1.3-0.6,2.4-1.4,3.4-2.4c0.9-1,1.7-2.2,2.2-3.6
                c0.5-1.4,0.8-2.9,0.8-4.5C153.6,32.4,153.4,30.9,152.9,29.5z M149.3,37.2c-0.3,1-0.8,1.8-1.3,2.5c-0.6,0.7-1.3,1.2-2.1,1.6
                c-0.8,0.4-1.7,0.5-2.8,0.5c-1,0-1.9-0.2-2.8-0.5c-0.8-0.4-1.5-0.9-2.1-1.6c-0.6-0.7-1-1.5-1.3-2.5s-0.5-2-0.5-3.2
                s0.2-2.2,0.5-3.2c0.3-1,0.8-1.8,1.3-2.4c0.6-0.7,1.3-1.2,2.1-1.5c0.8-0.4,1.7-0.5,2.8-0.5c1,0,1.9,0.2,2.8,0.5s1.5,0.9,2.1,1.5
                s1,1.5,1.3,2.4c0.3,1,0.5,2,0.5,3.2C149.8,35.2,149.6,36.2,149.3,37.2z"/>
            <polygon points="130.4,23.1 130.4,45 126.8,45 126.8,31.4 121.4,45 117.9,45 112.5,31.5 112.5,45 109,45 109,23.1 112.5,23.1 
                119.7,40.6 126.8,23.1"/>
          </g>
        </g>
      </g>
    </g>
  </g>
</svg>
